<svg xmlns="http://www.w3.org/2000/svg" width="1600" height="980" viewBox="0 0 1600 980" role="img" aria-label="Task 3 inference latency: QEMU and Rock-4D">
<rect width="1600" height="980" fill="#ffffff"/>
<style>text{font-family:Arial,sans-serif} .grid{stroke:#d1d5db;stroke-width:1} .frame{fill:none;stroke:#374151;stroke-width:1} .na{fill:#e5e7eb;stroke:#9ca3af;stroke-width:1}</style>
<text x="24.0" y="30.0" font-size="20px" text-anchor="start" font-weight="bold" fill="#111827">Task 3 inference latency: QEMU and Rock-4D</text>
<text x="28.0" y="75.0" font-size="14px" text-anchor="start" font-weight="bold" fill="#111827">min</text>
<rect class="frame" x="78.0" y="89.0" width="435.0" height="219.0"/>
<line class="grid" x1="78.0" y1="308.0" x2="513.0" y2="308.0"/>
<text x="72.0" y="312.0" font-size="10px" text-anchor="end" font-weight="normal" fill="#111827">0</text>
<line class="grid" x1="78.0" y1="253.2" x2="513.0" y2="253.2"/>
<text x="72.0" y="257.2" font-size="10px" text-anchor="end" font-weight="normal" fill="#111827">1,169.84</text>
<line class="grid" x1="78.0" y1="198.5" x2="513.0" y2="198.5"/>
<text x="72.0" y="202.5" font-size="10px" text-anchor="end" font-weight="normal" fill="#111827">2,339.68</text>
<line class="grid" x1="78.0" y1="143.8" x2="513.0" y2="143.8"/>
<text x="72.0" y="147.8" font-size="10px" text-anchor="end" font-weight="normal" fill="#111827">3,509.52</text>
<line class="grid" x1="78.0" y1="89.0" x2="513.0" y2="89.0"/>
<text x="72.0" y="93.0" font-size="10px" text-anchor="end" font-weight="normal" fill="#111827">4,679.36</text>
<rect x="88.9" y="112.5" width="32.6" height="195.5" fill="#2563eb"/>
<text x="105.2" y="108.5" font-size="10px" text-anchor="middle" font-weight="normal" fill="#111827">4,178</text>
<text x="105.2" y="324.0" font-size="9px" text-anchor="middle" font-weight="normal" fill="#111827">Q-RT/L</text>
<rect x="143.2" y="183.3" width="32.6" height="124.7" fill="#0891b2"/>
<text x="159.6" y="179.3" font-size="10px" text-anchor="middle" font-weight="normal" fill="#111827">2,665</text>
<text x="159.6" y="324.0" font-size="9px" text-anchor="middle" font-weight="normal" fill="#111827">Q-RT/S</text>
<rect x="197.6" y="137.0" width="32.6" height="171.0" fill="#16a34a"/>
<text x="213.9" y="133.0" font-size="10px" text-anchor="middle" font-weight="normal" fill="#111827">3,654</text>
<text x="213.9" y="324.0" font-size="9px" text-anchor="middle" font-weight="normal" fill="#111827">Q-Z/L</text>
<rect x="252.0" y="234.5" width="32.6" height="73.5" fill="#65a30d"/>
<text x="268.3" y="230.5" font-size="10px" text-anchor="middle" font-weight="normal" fill="#111827">1,571</text>
<text x="268.3" y="324.0" font-size="9px" text-anchor="middle" font-weight="normal" fill="#111827">Q-Z/S</text>
<rect x="306.4" y="263.6" width="32.6" height="44.4" fill="#ea580c"/>
<text x="322.7" y="259.6" font-size="10px" text-anchor="middle" font-weight="normal" fill="#111827">949</text>
<text x="322.7" y="324.0" font-size="9px" text-anchor="middle" font-weight="normal" fill="#111827">R-RT/L</text>
<rect x="360.8" y="262.4" width="32.6" height="45.6" fill="#c2410c"/>
<text x="377.1" y="258.4" font-size="10px" text-anchor="middle" font-weight="normal" fill="#111827">974</text>
<text x="377.1" y="324.0" font-size="9px" text-anchor="middle" font-weight="normal" fill="#111827">R-RT/S</text>
<rect x="415.1" y="263.4" width="32.6" height="44.6" fill="#9333ea"/>
<text x="431.4" y="259.4" font-size="10px" text-anchor="middle" font-weight="normal" fill="#111827">952</text>
<text x="431.4" y="324.0" font-size="9px" text-anchor="middle" font-weight="normal" fill="#111827">R-Z/L</text>
<rect class="na" x="469.5" y="300.0" width="32.6" height="8"/>
<text x="485.8" y="296.0" font-size="9px" text-anchor="middle" font-weight="normal" fill="#111827">NA</text>
<text x="485.8" y="324.0" font-size="9px" text-anchor="middle" font-weight="normal" fill="#111827">R-Z/S</text>
<text x="36.0" y="198.5" font-size="10px" text-anchor="middle" font-weight="normal" fill="#111827">us</text>
<text x="553.0" y="75.0" font-size="14px" text-anchor="start" font-weight="bold" fill="#111827">mean</text>
<rect class="frame" x="603.0" y="89.0" width="435.0" height="219.0"/>
<line class="grid" x1="603.0" y1="308.0" x2="1038.0" y2="308.0"/>
<text x="597.0" y="312.0" font-size="10px" text-anchor="end" font-weight="normal" fill="#111827">0</text>
<line class="grid" x1="603.0" y1="253.2" x2="1038.0" y2="253.2"/>
<text x="597.0" y="257.2" font-size="10px" text-anchor="end" font-weight="normal" fill="#111827">2,465.68</text>
<line class="grid" x1="603.0" y1="198.5" x2="1038.0" y2="198.5"/>
<text x="597.0" y="202.5" font-size="10px" text-anchor="end" font-weight="normal" fill="#111827">4,931.36</text>
<line class="grid" x1="603.0" y1="143.8" x2="1038.0" y2="143.8"/>
<text x="597.0" y="147.8" font-size="10px" text-anchor="end" font-weight="normal" fill="#111827">7,397.04</text>
<line class="grid" x1="603.0" y1="89.0" x2="1038.0" y2="89.0"/>
<text x="597.0" y="93.0" font-size="10px" text-anchor="end" font-weight="normal" fill="#111827">9,862.72</text>
<rect x="613.9" y="112.5" width="32.6" height="195.5" fill="#2563eb"/>
<text x="630.2" y="108.5" font-size="10px" text-anchor="middle" font-weight="normal" fill="#111827">8,806</text>
<text x="630.2" y="324.0" font-size="9px" text-anchor="middle" font-weight="normal" fill="#111827">Q-RT/L</text>
<rect x="668.2" y="236.2" width="32.6" height="71.8" fill="#0891b2"/>
<text x="684.6" y="232.2" font-size="10px" text-anchor="middle" font-weight="normal" fill="#111827">3,233</text>
<text x="684.6" y="324.0" font-size="9px" text-anchor="middle" font-weight="normal" fill="#111827">Q-RT/S</text>
<rect x="722.6" y="169.8" width="32.6" height="138.2" fill="#16a34a"/>
<text x="738.9" y="165.8" font-size="10px" text-anchor="middle" font-weight="normal" fill="#111827">6,224</text>
<text x="738.9" y="324.0" font-size="9px" text-anchor="middle" font-weight="normal" fill="#111827">Q-Z/L</text>
<rect x="777.0" y="270.3" width="32.6" height="37.7" fill="#65a30d"/>
<text x="793.3" y="266.3" font-size="10px" text-anchor="middle" font-weight="normal" fill="#111827">1,696</text>
<text x="793.3" y="324.0" font-size="9px" text-anchor="middle" font-weight="normal" fill="#111827">Q-Z/S</text>
<rect x="831.4" y="286.6" width="32.6" height="21.4" fill="#ea580c"/>
<text x="847.7" y="282.6" font-size="10px" text-anchor="middle" font-weight="normal" fill="#111827">962</text>
<text x="847.7" y="324.0" font-size="9px" text-anchor="middle" font-weight="normal" fill="#111827">R-RT/L</text>
<rect x="885.8" y="278.0" width="32.6" height="30.0" fill="#c2410c"/>
<text x="902.1" y="274.0" font-size="10px" text-anchor="middle" font-weight="normal" fill="#111827">1,349</text>
<text x="902.1" y="324.0" font-size="9px" text-anchor="middle" font-weight="normal" fill="#111827">R-RT/S</text>
<rect x="940.1" y="286.5" width="32.6" height="21.5" fill="#9333ea"/>
<text x="956.4" y="282.5" font-size="10px" text-anchor="middle" font-weight="normal" fill="#111827">967</text>
<text x="956.4" y="324.0" font-size="9px" text-anchor="middle" font-weight="normal" fill="#111827">R-Z/L</text>
<rect class="na" x="994.5" y="300.0" width="32.6" height="8"/>
<text x="1010.8" y="296.0" font-size="9px" text-anchor="middle" font-weight="normal" fill="#111827">NA</text>
<text x="1010.8" y="324.0" font-size="9px" text-anchor="middle" font-weight="normal" fill="#111827">R-Z/S</text>
<text x="561.0" y="198.5" font-size="10px" text-anchor="middle" font-weight="normal" fill="#111827">us</text>
<text x="1078.0" y="75.0" font-size="14px" text-anchor="start" font-weight="bold" fill="#111827">p50</text>
<rect class="frame" x="1128.0" y="89.0" width="435.0" height="219.0"/>
<line class="grid" x1="1128.0" y1="308.0" x2="1563.0" y2="308.0"/>
<text x="1122.0" y="312.0" font-size="10px" text-anchor="end" font-weight="normal" fill="#111827">0</text>
<line class="grid" x1="1128.0" y1="253.2" x2="1563.0" y2="253.2"/>
<text x="1122.0" y="257.2" font-size="10px" text-anchor="end" font-weight="normal" fill="#111827">1,694.28</text>
<line class="grid" x1="1128.0" y1="198.5" x2="1563.0" y2="198.5"/>
<text x="1122.0" y="202.5" font-size="10px" text-anchor="end" font-weight="normal" fill="#111827">3,388.56</text>
<line class="grid" x1="1128.0" y1="143.8" x2="1563.0" y2="143.8"/>
<text x="1122.0" y="147.8" font-size="10px" text-anchor="end" font-weight="normal" fill="#111827">5,082.84</text>
<line class="grid" x1="1128.0" y1="89.0" x2="1563.0" y2="89.0"/>
<text x="1122.0" y="93.0" font-size="10px" text-anchor="end" font-weight="normal" fill="#111827">6,777.12</text>
<rect x="1138.9" y="112.5" width="32.6" height="195.5" fill="#2563eb"/>
<text x="1155.2" y="108.5" font-size="10px" text-anchor="middle" font-weight="normal" fill="#111827">6,051</text>
<text x="1155.2" y="324.0" font-size="9px" text-anchor="middle" font-weight="normal" fill="#111827">Q-RT/L</text>
<rect x="1193.2" y="206.6" width="32.6" height="101.4" fill="#0891b2"/>
<text x="1209.6" y="202.6" font-size="10px" text-anchor="middle" font-weight="normal" fill="#111827">3,137</text>
<text x="1209.6" y="324.0" font-size="9px" text-anchor="middle" font-weight="normal" fill="#111827">Q-RT/S</text>
<rect x="1247.6" y="131.2" width="32.6" height="176.8" fill="#16a34a"/>
<text x="1263.9" y="127.2" font-size="10px" text-anchor="middle" font-weight="normal" fill="#111827">5,472</text>
<text x="1263.9" y="324.0" font-size="9px" text-anchor="middle" font-weight="normal" fill="#111827">Q-Z/L</text>
<rect x="1302.0" y="255.7" width="32.6" height="52.3" fill="#65a30d"/>
<text x="1318.3" y="251.7" font-size="10px" text-anchor="middle" font-weight="normal" fill="#111827">1,618</text>
<text x="1318.3" y="324.0" font-size="9px" text-anchor="middle" font-weight="normal" fill="#111827">Q-Z/S</text>
<rect x="1356.4" y="276.9" width="32.6" height="31.1" fill="#ea580c"/>
<text x="1372.7" y="272.9" font-size="10px" text-anchor="middle" font-weight="normal" fill="#111827">963</text>
<text x="1372.7" y="324.0" font-size="9px" text-anchor="middle" font-weight="normal" fill="#111827">R-RT/L</text>
<rect x="1410.8" y="272.4" width="32.6" height="35.6" fill="#c2410c"/>
<text x="1427.1" y="268.4" font-size="10px" text-anchor="middle" font-weight="normal" fill="#111827">1,101</text>
<text x="1427.1" y="324.0" font-size="9px" text-anchor="middle" font-weight="normal" fill="#111827">R-RT/S</text>
<rect x="1465.1" y="276.8" width="32.6" height="31.2" fill="#9333ea"/>
<text x="1481.4" y="272.8" font-size="10px" text-anchor="middle" font-weight="normal" fill="#111827">966</text>
<text x="1481.4" y="324.0" font-size="9px" text-anchor="middle" font-weight="normal" fill="#111827">R-Z/L</text>
<rect class="na" x="1519.5" y="300.0" width="32.6" height="8"/>
<text x="1535.8" y="296.0" font-size="9px" text-anchor="middle" font-weight="normal" fill="#111827">NA</text>
<text x="1535.8" y="324.0" font-size="9px" text-anchor="middle" font-weight="normal" fill="#111827">R-Z/S</text>
<text x="1086.0" y="198.5" font-size="10px" text-anchor="middle" font-weight="normal" fill="#111827">us</text>
<text x="28.0" y="405.0" font-size="14px" text-anchor="start" font-weight="bold" fill="#111827">p95</text>
<rect class="frame" x="78.0" y="419.0" width="435.0" height="219.0"/>
<line class="grid" x1="78.0" y1="638.0" x2="513.0" y2="638.0"/>
<text x="72.0" y="642.0" font-size="10px" text-anchor="end" font-weight="normal" fill="#111827">0</text>
<line class="grid" x1="78.0" y1="583.2" x2="513.0" y2="583.2"/>
<text x="72.0" y="587.2" font-size="10px" text-anchor="end" font-weight="normal" fill="#111827">5,487.72</text>
<line class="grid" x1="78.0" y1="528.5" x2="513.0" y2="528.5"/>
<text x="72.0" y="532.5" font-size="10px" text-anchor="end" font-weight="normal" fill="#111827">10,975.44</text>
<line class="grid" x1="78.0" y1="473.8" x2="513.0" y2="473.8"/>
<text x="72.0" y="477.8" font-size="10px" text-anchor="end" font-weight="normal" fill="#111827">16,463.16</text>
<line class="grid" x1="78.0" y1="419.0" x2="513.0" y2="419.0"/>
<text x="72.0" y="423.0" font-size="10px" text-anchor="end" font-weight="normal" fill="#111827">21,950.88</text>
<rect x="88.9" y="442.5" width="32.6" height="195.5" fill="#2563eb"/>
<text x="105.2" y="438.5" font-size="10px" text-anchor="middle" font-weight="normal" fill="#111827">19,599</text>
<text x="105.2" y="654.0" font-size="9px" text-anchor="middle" font-weight="normal" fill="#111827">Q-RT/L</text>
<rect x="143.2" y="598.2" width="32.6" height="39.8" fill="#0891b2"/>
<text x="159.6" y="594.2" font-size="10px" text-anchor="middle" font-weight="normal" fill="#111827">3,991</text>
<text x="159.6" y="654.0" font-size="9px" text-anchor="middle" font-weight="normal" fill="#111827">Q-RT/S</text>
<rect x="197.6" y="522.5" width="32.6" height="115.5" fill="#16a34a"/>
<text x="213.9" y="518.5" font-size="10px" text-anchor="middle" font-weight="normal" fill="#111827">11,577</text>
<text x="213.9" y="654.0" font-size="9px" text-anchor="middle" font-weight="normal" fill="#111827">Q-Z/L</text>
<rect x="252.0" y="618.7" width="32.6" height="19.3" fill="#65a30d"/>
<text x="268.3" y="614.7" font-size="10px" text-anchor="middle" font-weight="normal" fill="#111827">1,938</text>
<text x="268.3" y="654.0" font-size="9px" text-anchor="middle" font-weight="normal" fill="#111827">Q-Z/S</text>
<rect x="306.4" y="628.3" width="32.6" height="9.7" fill="#ea580c"/>
<text x="322.7" y="624.3" font-size="10px" text-anchor="middle" font-weight="normal" fill="#111827">971</text>
<text x="322.7" y="654.0" font-size="9px" text-anchor="middle" font-weight="normal" fill="#111827">R-RT/L</text>
<rect x="360.8" y="617.2" width="32.6" height="20.8" fill="#c2410c"/>
<text x="377.1" y="613.2" font-size="10px" text-anchor="middle" font-weight="normal" fill="#111827">2,086</text>
<text x="377.1" y="654.0" font-size="9px" text-anchor="middle" font-weight="normal" fill="#111827">R-RT/S</text>
<rect x="415.1" y="628.2" width="32.6" height="9.8" fill="#9333ea"/>
<text x="431.4" y="624.2" font-size="10px" text-anchor="middle" font-weight="normal" fill="#111827">987</text>
<text x="431.4" y="654.0" font-size="9px" text-anchor="middle" font-weight="normal" fill="#111827">R-Z/L</text>
<rect class="na" x="469.5" y="630.0" width="32.6" height="8"/>
<text x="485.8" y="626.0" font-size="9px" text-anchor="middle" font-weight="normal" fill="#111827">NA</text>
<text x="485.8" y="654.0" font-size="9px" text-anchor="middle" font-weight="normal" fill="#111827">R-Z/S</text>
<text x="36.0" y="528.5" font-size="10px" text-anchor="middle" font-weight="normal" fill="#111827">us</text>
<text x="553.0" y="405.0" font-size="14px" text-anchor="start" font-weight="bold" fill="#111827">p99</text>
<rect class="frame" x="603.0" y="419.0" width="435.0" height="219.0"/>
<line class="grid" x1="603.0" y1="638.0" x2="1038.0" y2="638.0"/>
<text x="597.0" y="642.0" font-size="10px" text-anchor="end" font-weight="normal" fill="#111827">0</text>
<line class="grid" x1="603.0" y1="583.2" x2="1038.0" y2="583.2"/>
<text x="597.0" y="587.2" font-size="10px" text-anchor="end" font-weight="normal" fill="#111827">5,487.72</text>
<line class="grid" x1="603.0" y1="528.5" x2="1038.0" y2="528.5"/>
<text x="597.0" y="532.5" font-size="10px" text-anchor="end" font-weight="normal" fill="#111827">10,975.44</text>
<line class="grid" x1="603.0" y1="473.8" x2="1038.0" y2="473.8"/>
<text x="597.0" y="477.8" font-size="10px" text-anchor="end" font-weight="normal" fill="#111827">16,463.16</text>
<line class="grid" x1="603.0" y1="419.0" x2="1038.0" y2="419.0"/>
<text x="597.0" y="423.0" font-size="10px" text-anchor="end" font-weight="normal" fill="#111827">21,950.88</text>
<rect x="613.9" y="442.5" width="32.6" height="195.5" fill="#2563eb"/>
<text x="630.2" y="438.5" font-size="10px" text-anchor="middle" font-weight="normal" fill="#111827">19,599</text>
<text x="630.2" y="654.0" font-size="9px" text-anchor="middle" font-weight="normal" fill="#111827">Q-RT/L</text>
<rect x="668.2" y="598.2" width="32.6" height="39.8" fill="#0891b2"/>
<text x="684.6" y="594.2" font-size="10px" text-anchor="middle" font-weight="normal" fill="#111827">3,991</text>
<text x="684.6" y="654.0" font-size="9px" text-anchor="middle" font-weight="normal" fill="#111827">Q-RT/S</text>
<rect x="722.6" y="522.5" width="32.6" height="115.5" fill="#16a34a"/>
<text x="738.9" y="518.5" font-size="10px" text-anchor="middle" font-weight="normal" fill="#111827">11,577</text>
<text x="738.9" y="654.0" font-size="9px" text-anchor="middle" font-weight="normal" fill="#111827">Q-Z/L</text>
<rect x="777.0" y="618.7" width="32.6" height="19.3" fill="#65a30d"/>
<text x="793.3" y="614.7" font-size="10px" text-anchor="middle" font-weight="normal" fill="#111827">1,938</text>
<text x="793.3" y="654.0" font-size="9px" text-anchor="middle" font-weight="normal" fill="#111827">Q-Z/S</text>
<rect x="831.4" y="628.3" width="32.6" height="9.7" fill="#ea580c"/>
<text x="847.7" y="624.3" font-size="10px" text-anchor="middle" font-weight="normal" fill="#111827">971</text>
<text x="847.7" y="654.0" font-size="9px" text-anchor="middle" font-weight="normal" fill="#111827">R-RT/L</text>
<rect x="885.8" y="617.2" width="32.6" height="20.8" fill="#c2410c"/>
<text x="902.1" y="613.2" font-size="10px" text-anchor="middle" font-weight="normal" fill="#111827">2,086</text>
<text x="902.1" y="654.0" font-size="9px" text-anchor="middle" font-weight="normal" fill="#111827">R-RT/S</text>
<rect x="940.1" y="628.2" width="32.6" height="9.8" fill="#9333ea"/>
<text x="956.4" y="624.2" font-size="10px" text-anchor="middle" font-weight="normal" fill="#111827">987</text>
<text x="956.4" y="654.0" font-size="9px" text-anchor="middle" font-weight="normal" fill="#111827">R-Z/L</text>
<rect class="na" x="994.5" y="630.0" width="32.6" height="8"/>
<text x="1010.8" y="626.0" font-size="9px" text-anchor="middle" font-weight="normal" fill="#111827">NA</text>
<text x="1010.8" y="654.0" font-size="9px" text-anchor="middle" font-weight="normal" fill="#111827">R-Z/S</text>
<text x="561.0" y="528.5" font-size="10px" text-anchor="middle" font-weight="normal" fill="#111827">us</text>
<text x="1078.0" y="405.0" font-size="14px" text-anchor="start" font-weight="bold" fill="#111827">max</text>
<rect class="frame" x="1128.0" y="419.0" width="435.0" height="219.0"/>
<line class="grid" x1="1128.0" y1="638.0" x2="1563.0" y2="638.0"/>
<text x="1122.0" y="642.0" font-size="10px" text-anchor="end" font-weight="normal" fill="#111827">0</text>
<line class="grid" x1="1128.0" y1="583.2" x2="1563.0" y2="583.2"/>
<text x="1122.0" y="587.2" font-size="10px" text-anchor="end" font-weight="normal" fill="#111827">5,487.72</text>
<line class="grid" x1="1128.0" y1="528.5" x2="1563.0" y2="528.5"/>
<text x="1122.0" y="532.5" font-size="10px" text-anchor="end" font-weight="normal" fill="#111827">10,975.44</text>
<line class="grid" x1="1128.0" y1="473.8" x2="1563.0" y2="473.8"/>
<text x="1122.0" y="477.8" font-size="10px" text-anchor="end" font-weight="normal" fill="#111827">16,463.16</text>
<line class="grid" x1="1128.0" y1="419.0" x2="1563.0" y2="419.0"/>
<text x="1122.0" y="423.0" font-size="10px" text-anchor="end" font-weight="normal" fill="#111827">21,950.88</text>
<rect x="1138.9" y="442.5" width="32.6" height="195.5" fill="#2563eb"/>
<text x="1155.2" y="438.5" font-size="10px" text-anchor="middle" font-weight="normal" fill="#111827">19,599</text>
<text x="1155.2" y="654.0" font-size="9px" text-anchor="middle" font-weight="normal" fill="#111827">Q-RT/L</text>
<rect x="1193.2" y="598.2" width="32.6" height="39.8" fill="#0891b2"/>
<text x="1209.6" y="594.2" font-size="10px" text-anchor="middle" font-weight="normal" fill="#111827">3,991</text>
<text x="1209.6" y="654.0" font-size="9px" text-anchor="middle" font-weight="normal" fill="#111827">Q-RT/S</text>
<rect x="1247.6" y="522.5" width="32.6" height="115.5" fill="#16a34a"/>
<text x="1263.9" y="518.5" font-size="10px" text-anchor="middle" font-weight="normal" fill="#111827">11,577</text>
<text x="1263.9" y="654.0" font-size="9px" text-anchor="middle" font-weight="normal" fill="#111827">Q-Z/L</text>
<rect x="1302.0" y="618.7" width="32.6" height="19.3" fill="#65a30d"/>
<text x="1318.3" y="614.7" font-size="10px" text-anchor="middle" font-weight="normal" fill="#111827">1,938</text>
<text x="1318.3" y="654.0" font-size="9px" text-anchor="middle" font-weight="normal" fill="#111827">Q-Z/S</text>
<rect x="1356.4" y="628.3" width="32.6" height="9.7" fill="#ea580c"/>
<text x="1372.7" y="624.3" font-size="10px" text-anchor="middle" font-weight="normal" fill="#111827">971</text>
<text x="1372.7" y="654.0" font-size="9px" text-anchor="middle" font-weight="normal" fill="#111827">R-RT/L</text>
<rect x="1410.8" y="617.2" width="32.6" height="20.8" fill="#c2410c"/>
<text x="1427.1" y="613.2" font-size="10px" text-anchor="middle" font-weight="normal" fill="#111827">2,086</text>
<text x="1427.1" y="654.0" font-size="9px" text-anchor="middle" font-weight="normal" fill="#111827">R-RT/S</text>
<rect x="1465.1" y="628.2" width="32.6" height="9.8" fill="#9333ea"/>
<text x="1481.4" y="624.2" font-size="10px" text-anchor="middle" font-weight="normal" fill="#111827">987</text>
<text x="1481.4" y="654.0" font-size="9px" text-anchor="middle" font-weight="normal" fill="#111827">R-Z/L</text>
<rect class="na" x="1519.5" y="630.0" width="32.6" height="8"/>
<text x="1535.8" y="626.0" font-size="9px" text-anchor="middle" font-weight="normal" fill="#111827">NA</text>
<text x="1535.8" y="654.0" font-size="9px" text-anchor="middle" font-weight="normal" fill="#111827">R-Z/S</text>
<text x="1086.0" y="528.5" font-size="10px" text-anchor="middle" font-weight="normal" fill="#111827">us</text>
<rect x="1080.0" y="725.0" width="12" height="12" fill="#2563eb"/>
<text x="1097.0" y="735.0" font-size="11px" text-anchor="start" font-weight="normal" fill="#111827">Q-RT/L</text>
<rect x="1230.0" y="725.0" width="12" height="12" fill="#0891b2"/>
<text x="1247.0" y="735.0" font-size="11px" text-anchor="start" font-weight="normal" fill="#111827">Q-RT/S</text>
<rect x="1380.0" y="725.0" width="12" height="12" fill="#16a34a"/>
<text x="1397.0" y="735.0" font-size="11px" text-anchor="start" font-weight="normal" fill="#111827">Q-Z/L</text>
<rect x="1530.0" y="725.0" width="12" height="12" fill="#65a30d"/>
<text x="1547.0" y="735.0" font-size="11px" text-anchor="start" font-weight="normal" fill="#111827">Q-Z/S</text>
<rect x="1080.0" y="745.0" width="12" height="12" fill="#ea580c"/>
<text x="1097.0" y="755.0" font-size="11px" text-anchor="start" font-weight="normal" fill="#111827">R-RT/L</text>
<rect x="1230.0" y="745.0" width="12" height="12" fill="#c2410c"/>
<text x="1247.0" y="755.0" font-size="11px" text-anchor="start" font-weight="normal" fill="#111827">R-RT/S</text>
<rect x="1380.0" y="745.0" width="12" height="12" fill="#9333ea"/>
<text x="1397.0" y="755.0" font-size="11px" text-anchor="start" font-weight="normal" fill="#111827">R-Z/L</text>
<rect x="1530.0" y="745.0" width="12" height="12" fill="#db2777"/>
<text x="1547.0" y="755.0" font-size="11px" text-anchor="start" font-weight="normal" fill="#111827">R-Z/S</text>
</svg>
