<svg xmlns="http://www.w3.org/2000/svg" width="1600" height="980" viewBox="0 0 1600 980" role="img" aria-label="Task 3 round-trip latency: QEMU and Rock-4D">
<rect width="1600" height="980" fill="#ffffff"/>
<style>text{font-family:Arial,sans-serif} .grid{stroke:#d1d5db;stroke-width:1} .frame{fill:none;stroke:#374151;stroke-width:1} .na{fill:#e5e7eb;stroke:#9ca3af;stroke-width:1}</style>
<text x="24.0" y="30.0" font-size="20px" text-anchor="start" font-weight="bold" fill="#111827">Task 3 round-trip latency: QEMU and Rock-4D</text>
<text x="28.0" y="75.0" font-size="14px" text-anchor="start" font-weight="bold" fill="#111827">min</text>
<rect class="frame" x="78.0" y="89.0" width="435.0" height="219.0"/>
<line class="grid" x1="78.0" y1="308.0" x2="513.0" y2="308.0"/>
<text x="72.0" y="312.0" font-size="10px" text-anchor="end" font-weight="normal" fill="#111827">0</text>
<line class="grid" x1="78.0" y1="253.2" x2="513.0" y2="253.2"/>
<text x="72.0" y="257.2" font-size="10px" text-anchor="end" font-weight="normal" fill="#111827">895.16</text>
<line class="grid" x1="78.0" y1="198.5" x2="513.0" y2="198.5"/>
<text x="72.0" y="202.5" font-size="10px" text-anchor="end" font-weight="normal" fill="#111827">1,790.32</text>
<line class="grid" x1="78.0" y1="143.8" x2="513.0" y2="143.8"/>
<text x="72.0" y="147.8" font-size="10px" text-anchor="end" font-weight="normal" fill="#111827">2,685.48</text>
<line class="grid" x1="78.0" y1="89.0" x2="513.0" y2="89.0"/>
<text x="72.0" y="93.0" font-size="10px" text-anchor="end" font-weight="normal" fill="#111827">3,580.64</text>
<rect x="88.9" y="250.1" width="32.6" height="57.9" fill="#2563eb"/>
<text x="105.2" y="246.1" font-size="10px" text-anchor="middle" font-weight="normal" fill="#111827">947</text>
<text x="105.2" y="324.0" font-size="9px" text-anchor="middle" font-weight="normal" fill="#111827">Q-RT/L</text>
<rect x="143.2" y="112.5" width="32.6" height="195.5" fill="#0891b2"/>
<text x="159.6" y="108.5" font-size="10px" text-anchor="middle" font-weight="normal" fill="#111827">3,197</text>
<text x="159.6" y="324.0" font-size="9px" text-anchor="middle" font-weight="normal" fill="#111827">Q-RT/S</text>
<rect x="197.6" y="255.2" width="32.6" height="52.8" fill="#16a34a"/>
<text x="213.9" y="251.2" font-size="10px" text-anchor="middle" font-weight="normal" fill="#111827">864</text>
<text x="213.9" y="324.0" font-size="9px" text-anchor="middle" font-weight="normal" fill="#111827">Q-Z/L</text>
<rect x="252.0" y="167.7" width="32.6" height="140.3" fill="#65a30d"/>
<text x="268.3" y="163.7" font-size="10px" text-anchor="middle" font-weight="normal" fill="#111827">2,294</text>
<text x="268.3" y="324.0" font-size="9px" text-anchor="middle" font-weight="normal" fill="#111827">Q-Z/S</text>
<rect class="na" x="306.4" y="300.0" width="32.6" height="8"/>
<text x="322.7" y="296.0" font-size="9px" text-anchor="middle" font-weight="normal" fill="#111827">NA</text>
<text x="322.7" y="324.0" font-size="9px" text-anchor="middle" font-weight="normal" fill="#111827">R-RT/L</text>
<rect class="na" x="360.8" y="300.0" width="32.6" height="8"/>
<text x="377.1" y="296.0" font-size="9px" text-anchor="middle" font-weight="normal" fill="#111827">NA</text>
<text x="377.1" y="324.0" font-size="9px" text-anchor="middle" font-weight="normal" fill="#111827">R-RT/S</text>
<rect x="415.1" y="186.8" width="32.6" height="121.2" fill="#9333ea"/>
<text x="431.4" y="182.8" font-size="10px" text-anchor="middle" font-weight="normal" fill="#111827">1,981</text>
<text x="431.4" y="324.0" font-size="9px" text-anchor="middle" font-weight="normal" fill="#111827">R-Z/L</text>
<rect class="na" x="469.5" y="300.0" width="32.6" height="8"/>
<text x="485.8" y="296.0" font-size="9px" text-anchor="middle" font-weight="normal" fill="#111827">NA</text>
<text x="485.8" y="324.0" font-size="9px" text-anchor="middle" font-weight="normal" fill="#111827">R-Z/S</text>
<text x="36.0" y="198.5" font-size="10px" text-anchor="middle" font-weight="normal" fill="#111827">us</text>
<text x="553.0" y="75.0" font-size="14px" text-anchor="start" font-weight="bold" fill="#111827">mean</text>
<rect class="frame" x="603.0" y="89.0" width="435.0" height="219.0"/>
<line class="grid" x1="603.0" y1="308.0" x2="1038.0" y2="308.0"/>
<text x="597.0" y="312.0" font-size="10px" text-anchor="end" font-weight="normal" fill="#111827">0</text>
<line class="grid" x1="603.0" y1="253.2" x2="1038.0" y2="253.2"/>
<text x="597.0" y="257.2" font-size="10px" text-anchor="end" font-weight="normal" fill="#111827">1,207.08</text>
<line class="grid" x1="603.0" y1="198.5" x2="1038.0" y2="198.5"/>
<text x="597.0" y="202.5" font-size="10px" text-anchor="end" font-weight="normal" fill="#111827">2,414.16</text>
<line class="grid" x1="603.0" y1="143.8" x2="1038.0" y2="143.8"/>
<text x="597.0" y="147.8" font-size="10px" text-anchor="end" font-weight="normal" fill="#111827">3,621.24</text>
<line class="grid" x1="603.0" y1="89.0" x2="1038.0" y2="89.0"/>
<text x="597.0" y="93.0" font-size="10px" text-anchor="end" font-weight="normal" fill="#111827">4,828.32</text>
<rect x="613.9" y="205.9" width="32.6" height="102.1" fill="#2563eb"/>
<text x="630.2" y="201.9" font-size="10px" text-anchor="middle" font-weight="normal" fill="#111827">2,250</text>
<text x="630.2" y="324.0" font-size="9px" text-anchor="middle" font-weight="normal" fill="#111827">Q-RT/L</text>
<rect x="668.2" y="114.7" width="32.6" height="193.3" fill="#0891b2"/>
<text x="684.6" y="110.7" font-size="10px" text-anchor="middle" font-weight="normal" fill="#111827">4,261</text>
<text x="684.6" y="324.0" font-size="9px" text-anchor="middle" font-weight="normal" fill="#111827">Q-RT/S</text>
<rect x="722.6" y="176.2" width="32.6" height="131.8" fill="#16a34a"/>
<text x="738.9" y="172.2" font-size="10px" text-anchor="middle" font-weight="normal" fill="#111827">2,905</text>
<text x="738.9" y="324.0" font-size="9px" text-anchor="middle" font-weight="normal" fill="#111827">Q-Z/L</text>
<rect x="777.0" y="112.5" width="32.6" height="195.5" fill="#65a30d"/>
<text x="793.3" y="108.5" font-size="10px" text-anchor="middle" font-weight="normal" fill="#111827">4,311</text>
<text x="793.3" y="324.0" font-size="9px" text-anchor="middle" font-weight="normal" fill="#111827">Q-Z/S</text>
<rect class="na" x="831.4" y="300.0" width="32.6" height="8"/>
<text x="847.7" y="296.0" font-size="9px" text-anchor="middle" font-weight="normal" fill="#111827">NA</text>
<text x="847.7" y="324.0" font-size="9px" text-anchor="middle" font-weight="normal" fill="#111827">R-RT/L</text>
<rect class="na" x="885.8" y="300.0" width="32.6" height="8"/>
<text x="902.1" y="296.0" font-size="9px" text-anchor="middle" font-weight="normal" fill="#111827">NA</text>
<text x="902.1" y="324.0" font-size="9px" text-anchor="middle" font-weight="normal" fill="#111827">R-RT/S</text>
<rect x="940.1" y="148.8" width="32.6" height="159.2" fill="#9333ea"/>
<text x="956.4" y="144.8" font-size="10px" text-anchor="middle" font-weight="normal" fill="#111827">3,510</text>
<text x="956.4" y="324.0" font-size="9px" text-anchor="middle" font-weight="normal" fill="#111827">R-Z/L</text>
<rect class="na" x="994.5" y="300.0" width="32.6" height="8"/>
<text x="1010.8" y="296.0" font-size="9px" text-anchor="middle" font-weight="normal" fill="#111827">NA</text>
<text x="1010.8" y="324.0" font-size="9px" text-anchor="middle" font-weight="normal" fill="#111827">R-Z/S</text>
<text x="561.0" y="198.5" font-size="10px" text-anchor="middle" font-weight="normal" fill="#111827">us</text>
<text x="1078.0" y="75.0" font-size="14px" text-anchor="start" font-weight="bold" fill="#111827">p50</text>
<rect class="frame" x="1128.0" y="89.0" width="435.0" height="219.0"/>
<line class="grid" x1="1128.0" y1="308.0" x2="1563.0" y2="308.0"/>
<text x="1122.0" y="312.0" font-size="10px" text-anchor="end" font-weight="normal" fill="#111827">0</text>
<line class="grid" x1="1128.0" y1="253.2" x2="1563.0" y2="253.2"/>
<text x="1122.0" y="257.2" font-size="10px" text-anchor="end" font-weight="normal" fill="#111827">1,061.76</text>
<line class="grid" x1="1128.0" y1="198.5" x2="1563.0" y2="198.5"/>
<text x="1122.0" y="202.5" font-size="10px" text-anchor="end" font-weight="normal" fill="#111827">2,123.52</text>
<line class="grid" x1="1128.0" y1="143.8" x2="1563.0" y2="143.8"/>
<text x="1122.0" y="147.8" font-size="10px" text-anchor="end" font-weight="normal" fill="#111827">3,185.28</text>
<line class="grid" x1="1128.0" y1="89.0" x2="1563.0" y2="89.0"/>
<text x="1122.0" y="93.0" font-size="10px" text-anchor="end" font-weight="normal" fill="#111827">4,247.04</text>
<rect x="1138.9" y="221.5" width="32.6" height="86.5" fill="#2563eb"/>
<text x="1155.2" y="217.5" font-size="10px" text-anchor="middle" font-weight="normal" fill="#111827">1,677</text>
<text x="1155.2" y="324.0" font-size="9px" text-anchor="middle" font-weight="normal" fill="#111827">Q-RT/L</text>
<rect x="1193.2" y="112.5" width="32.6" height="195.5" fill="#0891b2"/>
<text x="1209.6" y="108.5" font-size="10px" text-anchor="middle" font-weight="normal" fill="#111827">3,792</text>
<text x="1209.6" y="324.0" font-size="9px" text-anchor="middle" font-weight="normal" fill="#111827">Q-RT/S</text>
<rect x="1247.6" y="233.7" width="32.6" height="74.3" fill="#16a34a"/>
<text x="1263.9" y="229.7" font-size="10px" text-anchor="middle" font-weight="normal" fill="#111827">1,440</text>
<text x="1263.9" y="324.0" font-size="9px" text-anchor="middle" font-weight="normal" fill="#111827">Q-Z/L</text>
<rect x="1302.0" y="126.1" width="32.6" height="181.9" fill="#65a30d"/>
<text x="1318.3" y="122.1" font-size="10px" text-anchor="middle" font-weight="normal" fill="#111827">3,527</text>
<text x="1318.3" y="324.0" font-size="9px" text-anchor="middle" font-weight="normal" fill="#111827">Q-Z/S</text>
<rect class="na" x="1356.4" y="300.0" width="32.6" height="8"/>
<text x="1372.7" y="296.0" font-size="9px" text-anchor="middle" font-weight="normal" fill="#111827">NA</text>
<text x="1372.7" y="324.0" font-size="9px" text-anchor="middle" font-weight="normal" fill="#111827">R-RT/L</text>
<rect class="na" x="1410.8" y="300.0" width="32.6" height="8"/>
<text x="1427.1" y="296.0" font-size="9px" text-anchor="middle" font-weight="normal" fill="#111827">NA</text>
<text x="1427.1" y="324.0" font-size="9px" text-anchor="middle" font-weight="normal" fill="#111827">R-RT/S</text>
<rect x="1465.1" y="133.4" width="32.6" height="174.6" fill="#9333ea"/>
<text x="1481.4" y="129.4" font-size="10px" text-anchor="middle" font-weight="normal" fill="#111827">3,386</text>
<text x="1481.4" y="324.0" font-size="9px" text-anchor="middle" font-weight="normal" fill="#111827">R-Z/L</text>
<rect class="na" x="1519.5" y="300.0" width="32.6" height="8"/>
<text x="1535.8" y="296.0" font-size="9px" text-anchor="middle" font-weight="normal" fill="#111827">NA</text>
<text x="1535.8" y="324.0" font-size="9px" text-anchor="middle" font-weight="normal" fill="#111827">R-Z/S</text>
<text x="1086.0" y="198.5" font-size="10px" text-anchor="middle" font-weight="normal" fill="#111827">us</text>
<text x="28.0" y="405.0" font-size="14px" text-anchor="start" font-weight="bold" fill="#111827">p95</text>
<rect class="frame" x="78.0" y="419.0" width="435.0" height="219.0"/>
<line class="grid" x1="78.0" y1="638.0" x2="513.0" y2="638.0"/>
<text x="72.0" y="642.0" font-size="10px" text-anchor="end" font-weight="normal" fill="#111827">0</text>
<line class="grid" x1="78.0" y1="583.2" x2="513.0" y2="583.2"/>
<text x="72.0" y="587.2" font-size="10px" text-anchor="end" font-weight="normal" fill="#111827">2,631.44</text>
<line class="grid" x1="78.0" y1="528.5" x2="513.0" y2="528.5"/>
<text x="72.0" y="532.5" font-size="10px" text-anchor="end" font-weight="normal" fill="#111827">5,262.88</text>
<line class="grid" x1="78.0" y1="473.8" x2="513.0" y2="473.8"/>
<text x="72.0" y="477.8" font-size="10px" text-anchor="end" font-weight="normal" fill="#111827">7,894.32</text>
<line class="grid" x1="78.0" y1="419.0" x2="513.0" y2="419.0"/>
<text x="72.0" y="423.0" font-size="10px" text-anchor="end" font-weight="normal" fill="#111827">10,525.76</text>
<rect x="88.9" y="551.4" width="32.6" height="86.6" fill="#2563eb"/>
<text x="105.2" y="547.4" font-size="10px" text-anchor="middle" font-weight="normal" fill="#111827">4,163</text>
<text x="105.2" y="654.0" font-size="9px" text-anchor="middle" font-weight="normal" fill="#111827">Q-RT/L</text>
<rect x="143.2" y="513.4" width="32.6" height="124.6" fill="#0891b2"/>
<text x="159.6" y="509.4" font-size="10px" text-anchor="middle" font-weight="normal" fill="#111827">5,991</text>
<text x="159.6" y="654.0" font-size="9px" text-anchor="middle" font-weight="normal" fill="#111827">Q-RT/S</text>
<rect x="197.6" y="442.5" width="32.6" height="195.5" fill="#16a34a"/>
<text x="213.9" y="438.5" font-size="10px" text-anchor="middle" font-weight="normal" fill="#111827">9,398</text>
<text x="213.9" y="654.0" font-size="9px" text-anchor="middle" font-weight="normal" fill="#111827">Q-Z/L</text>
<rect x="252.0" y="510.8" width="32.6" height="127.2" fill="#65a30d"/>
<text x="268.3" y="506.8" font-size="10px" text-anchor="middle" font-weight="normal" fill="#111827">6,114</text>
<text x="268.3" y="654.0" font-size="9px" text-anchor="middle" font-weight="normal" fill="#111827">Q-Z/S</text>
<rect class="na" x="306.4" y="630.0" width="32.6" height="8"/>
<text x="322.7" y="626.0" font-size="9px" text-anchor="middle" font-weight="normal" fill="#111827">NA</text>
<text x="322.7" y="654.0" font-size="9px" text-anchor="middle" font-weight="normal" fill="#111827">R-RT/L</text>
<rect class="na" x="360.8" y="630.0" width="32.6" height="8"/>
<text x="377.1" y="626.0" font-size="9px" text-anchor="middle" font-weight="normal" fill="#111827">NA</text>
<text x="377.1" y="654.0" font-size="9px" text-anchor="middle" font-weight="normal" fill="#111827">R-RT/S</text>
<rect x="415.1" y="530.0" width="32.6" height="108.0" fill="#9333ea"/>
<text x="431.4" y="526.0" font-size="10px" text-anchor="middle" font-weight="normal" fill="#111827">5,189</text>
<text x="431.4" y="654.0" font-size="9px" text-anchor="middle" font-weight="normal" fill="#111827">R-Z/L</text>
<rect class="na" x="469.5" y="630.0" width="32.6" height="8"/>
<text x="485.8" y="626.0" font-size="9px" text-anchor="middle" font-weight="normal" fill="#111827">NA</text>
<text x="485.8" y="654.0" font-size="9px" text-anchor="middle" font-weight="normal" fill="#111827">R-Z/S</text>
<text x="36.0" y="528.5" font-size="10px" text-anchor="middle" font-weight="normal" fill="#111827">us</text>
<text x="553.0" y="405.0" font-size="14px" text-anchor="start" font-weight="bold" fill="#111827">p99</text>
<rect class="frame" x="603.0" y="419.0" width="435.0" height="219.0"/>
<line class="grid" x1="603.0" y1="638.0" x2="1038.0" y2="638.0"/>
<text x="597.0" y="642.0" font-size="10px" text-anchor="end" font-weight="normal" fill="#111827">0</text>
<line class="grid" x1="603.0" y1="583.2" x2="1038.0" y2="583.2"/>
<text x="597.0" y="587.2" font-size="10px" text-anchor="end" font-weight="normal" fill="#111827">2,631.44</text>
<line class="grid" x1="603.0" y1="528.5" x2="1038.0" y2="528.5"/>
<text x="597.0" y="532.5" font-size="10px" text-anchor="end" font-weight="normal" fill="#111827">5,262.88</text>
<line class="grid" x1="603.0" y1="473.8" x2="1038.0" y2="473.8"/>
<text x="597.0" y="477.8" font-size="10px" text-anchor="end" font-weight="normal" fill="#111827">7,894.32</text>
<line class="grid" x1="603.0" y1="419.0" x2="1038.0" y2="419.0"/>
<text x="597.0" y="423.0" font-size="10px" text-anchor="end" font-weight="normal" fill="#111827">10,525.76</text>
<rect x="613.9" y="551.4" width="32.6" height="86.6" fill="#2563eb"/>
<text x="630.2" y="547.4" font-size="10px" text-anchor="middle" font-weight="normal" fill="#111827">4,163</text>
<text x="630.2" y="654.0" font-size="9px" text-anchor="middle" font-weight="normal" fill="#111827">Q-RT/L</text>
<rect x="668.2" y="513.4" width="32.6" height="124.6" fill="#0891b2"/>
<text x="684.6" y="509.4" font-size="10px" text-anchor="middle" font-weight="normal" fill="#111827">5,991</text>
<text x="684.6" y="654.0" font-size="9px" text-anchor="middle" font-weight="normal" fill="#111827">Q-RT/S</text>
<rect x="722.6" y="442.5" width="32.6" height="195.5" fill="#16a34a"/>
<text x="738.9" y="438.5" font-size="10px" text-anchor="middle" font-weight="normal" fill="#111827">9,398</text>
<text x="738.9" y="654.0" font-size="9px" text-anchor="middle" font-weight="normal" fill="#111827">Q-Z/L</text>
<rect x="777.0" y="510.8" width="32.6" height="127.2" fill="#65a30d"/>
<text x="793.3" y="506.8" font-size="10px" text-anchor="middle" font-weight="normal" fill="#111827">6,114</text>
<text x="793.3" y="654.0" font-size="9px" text-anchor="middle" font-weight="normal" fill="#111827">Q-Z/S</text>
<rect class="na" x="831.4" y="630.0" width="32.6" height="8"/>
<text x="847.7" y="626.0" font-size="9px" text-anchor="middle" font-weight="normal" fill="#111827">NA</text>
<text x="847.7" y="654.0" font-size="9px" text-anchor="middle" font-weight="normal" fill="#111827">R-RT/L</text>
<rect class="na" x="885.8" y="630.0" width="32.6" height="8"/>
<text x="902.1" y="626.0" font-size="9px" text-anchor="middle" font-weight="normal" fill="#111827">NA</text>
<text x="902.1" y="654.0" font-size="9px" text-anchor="middle" font-weight="normal" fill="#111827">R-RT/S</text>
<rect x="940.1" y="530.0" width="32.6" height="108.0" fill="#9333ea"/>
<text x="956.4" y="526.0" font-size="10px" text-anchor="middle" font-weight="normal" fill="#111827">5,189</text>
<text x="956.4" y="654.0" font-size="9px" text-anchor="middle" font-weight="normal" fill="#111827">R-Z/L</text>
<rect class="na" x="994.5" y="630.0" width="32.6" height="8"/>
<text x="1010.8" y="626.0" font-size="9px" text-anchor="middle" font-weight="normal" fill="#111827">NA</text>
<text x="1010.8" y="654.0" font-size="9px" text-anchor="middle" font-weight="normal" fill="#111827">R-Z/S</text>
<text x="561.0" y="528.5" font-size="10px" text-anchor="middle" font-weight="normal" fill="#111827">us</text>
<text x="1078.0" y="405.0" font-size="14px" text-anchor="start" font-weight="bold" fill="#111827">max</text>
<rect class="frame" x="1128.0" y="419.0" width="435.0" height="219.0"/>
<line class="grid" x1="1128.0" y1="638.0" x2="1563.0" y2="638.0"/>
<text x="1122.0" y="642.0" font-size="10px" text-anchor="end" font-weight="normal" fill="#111827">0</text>
<line class="grid" x1="1128.0" y1="583.2" x2="1563.0" y2="583.2"/>
<text x="1122.0" y="587.2" font-size="10px" text-anchor="end" font-weight="normal" fill="#111827">2,631.44</text>
<line class="grid" x1="1128.0" y1="528.5" x2="1563.0" y2="528.5"/>
<text x="1122.0" y="532.5" font-size="10px" text-anchor="end" font-weight="normal" fill="#111827">5,262.88</text>
<line class="grid" x1="1128.0" y1="473.8" x2="1563.0" y2="473.8"/>
<text x="1122.0" y="477.8" font-size="10px" text-anchor="end" font-weight="normal" fill="#111827">7,894.32</text>
<line class="grid" x1="1128.0" y1="419.0" x2="1563.0" y2="419.0"/>
<text x="1122.0" y="423.0" font-size="10px" text-anchor="end" font-weight="normal" fill="#111827">10,525.76</text>
<rect x="1138.9" y="551.4" width="32.6" height="86.6" fill="#2563eb"/>
<text x="1155.2" y="547.4" font-size="10px" text-anchor="middle" font-weight="normal" fill="#111827">4,163</text>
<text x="1155.2" y="654.0" font-size="9px" text-anchor="middle" font-weight="normal" fill="#111827">Q-RT/L</text>
<rect x="1193.2" y="513.4" width="32.6" height="124.6" fill="#0891b2"/>
<text x="1209.6" y="509.4" font-size="10px" text-anchor="middle" font-weight="normal" fill="#111827">5,991</text>
<text x="1209.6" y="654.0" font-size="9px" text-anchor="middle" font-weight="normal" fill="#111827">Q-RT/S</text>
<rect x="1247.6" y="442.5" width="32.6" height="195.5" fill="#16a34a"/>
<text x="1263.9" y="438.5" font-size="10px" text-anchor="middle" font-weight="normal" fill="#111827">9,398</text>
<text x="1263.9" y="654.0" font-size="9px" text-anchor="middle" font-weight="normal" fill="#111827">Q-Z/L</text>
<rect x="1302.0" y="510.8" width="32.6" height="127.2" fill="#65a30d"/>
<text x="1318.3" y="506.8" font-size="10px" text-anchor="middle" font-weight="normal" fill="#111827">6,114</text>
<text x="1318.3" y="654.0" font-size="9px" text-anchor="middle" font-weight="normal" fill="#111827">Q-Z/S</text>
<rect class="na" x="1356.4" y="630.0" width="32.6" height="8"/>
<text x="1372.7" y="626.0" font-size="9px" text-anchor="middle" font-weight="normal" fill="#111827">NA</text>
<text x="1372.7" y="654.0" font-size="9px" text-anchor="middle" font-weight="normal" fill="#111827">R-RT/L</text>
<rect class="na" x="1410.8" y="630.0" width="32.6" height="8"/>
<text x="1427.1" y="626.0" font-size="9px" text-anchor="middle" font-weight="normal" fill="#111827">NA</text>
<text x="1427.1" y="654.0" font-size="9px" text-anchor="middle" font-weight="normal" fill="#111827">R-RT/S</text>
<rect x="1465.1" y="530.0" width="32.6" height="108.0" fill="#9333ea"/>
<text x="1481.4" y="526.0" font-size="10px" text-anchor="middle" font-weight="normal" fill="#111827">5,189</text>
<text x="1481.4" y="654.0" font-size="9px" text-anchor="middle" font-weight="normal" fill="#111827">R-Z/L</text>
<rect class="na" x="1519.5" y="630.0" width="32.6" height="8"/>
<text x="1535.8" y="626.0" font-size="9px" text-anchor="middle" font-weight="normal" fill="#111827">NA</text>
<text x="1535.8" y="654.0" font-size="9px" text-anchor="middle" font-weight="normal" fill="#111827">R-Z/S</text>
<text x="1086.0" y="528.5" font-size="10px" text-anchor="middle" font-weight="normal" fill="#111827">us</text>
<rect x="1080.0" y="725.0" width="12" height="12" fill="#2563eb"/>
<text x="1097.0" y="735.0" font-size="11px" text-anchor="start" font-weight="normal" fill="#111827">Q-RT/L</text>
<rect x="1230.0" y="725.0" width="12" height="12" fill="#0891b2"/>
<text x="1247.0" y="735.0" font-size="11px" text-anchor="start" font-weight="normal" fill="#111827">Q-RT/S</text>
<rect x="1380.0" y="725.0" width="12" height="12" fill="#16a34a"/>
<text x="1397.0" y="735.0" font-size="11px" text-anchor="start" font-weight="normal" fill="#111827">Q-Z/L</text>
<rect x="1530.0" y="725.0" width="12" height="12" fill="#65a30d"/>
<text x="1547.0" y="735.0" font-size="11px" text-anchor="start" font-weight="normal" fill="#111827">Q-Z/S</text>
<rect x="1080.0" y="745.0" width="12" height="12" fill="#ea580c"/>
<text x="1097.0" y="755.0" font-size="11px" text-anchor="start" font-weight="normal" fill="#111827">R-RT/L</text>
<rect x="1230.0" y="745.0" width="12" height="12" fill="#c2410c"/>
<text x="1247.0" y="755.0" font-size="11px" text-anchor="start" font-weight="normal" fill="#111827">R-RT/S</text>
<rect x="1380.0" y="745.0" width="12" height="12" fill="#9333ea"/>
<text x="1397.0" y="755.0" font-size="11px" text-anchor="start" font-weight="normal" fill="#111827">R-Z/L</text>
<rect x="1530.0" y="745.0" width="12" height="12" fill="#db2777"/>
<text x="1547.0" y="755.0" font-size="11px" text-anchor="start" font-weight="normal" fill="#111827">R-Z/S</text>
</svg>
