<svg xmlns="http://www.w3.org/2000/svg" width="1600" height="980" viewBox="0 0 1600 980" role="img" aria-label="Task 3 reliability and application throughput">
<rect width="1600" height="980" fill="#ffffff"/>
<style>text{font-family:Arial,sans-serif} .grid{stroke:#d1d5db;stroke-width:1} .frame{fill:none;stroke:#374151;stroke-width:1} .na{fill:#e5e7eb;stroke:#9ca3af;stroke-width:1}</style>
<text x="24.0" y="30.0" font-size="20px" text-anchor="start" font-weight="bold" fill="#111827">Task 3 reliability and application throughput</text>
<text x="28.0" y="75.0" font-size="14px" text-anchor="start" font-weight="bold" fill="#111827">Success rate</text>
<rect class="frame" x="78.0" y="89.0" width="435.0" height="189.0"/>
<line class="grid" x1="78.0" y1="278.0" x2="513.0" y2="278.0"/>
<text x="72.0" y="282.0" font-size="10px" text-anchor="end" font-weight="normal" fill="#111827">0</text>
<line class="grid" x1="78.0" y1="230.8" x2="513.0" y2="230.8"/>
<text x="72.0" y="234.8" font-size="10px" text-anchor="end" font-weight="normal" fill="#111827">0.28</text>
<line class="grid" x1="78.0" y1="183.5" x2="513.0" y2="183.5"/>
<text x="72.0" y="187.5" font-size="10px" text-anchor="end" font-weight="normal" fill="#111827">0.56</text>
<line class="grid" x1="78.0" y1="136.2" x2="513.0" y2="136.2"/>
<text x="72.0" y="140.2" font-size="10px" text-anchor="end" font-weight="normal" fill="#111827">0.84</text>
<line class="grid" x1="78.0" y1="89.0" x2="513.0" y2="89.0"/>
<text x="72.0" y="93.0" font-size="10px" text-anchor="end" font-weight="normal" fill="#111827">1.12</text>
<rect x="88.9" y="109.3" width="32.6" height="168.7" fill="#2563eb"/>
<text x="105.2" y="105.3" font-size="10px" text-anchor="middle" font-weight="normal" fill="#111827">1</text>
<text x="105.2" y="294.0" font-size="9px" text-anchor="middle" font-weight="normal" fill="#111827">Q-RT/L</text>
<rect x="143.2" y="109.3" width="32.6" height="168.7" fill="#0891b2"/>
<text x="159.6" y="105.3" font-size="10px" text-anchor="middle" font-weight="normal" fill="#111827">1</text>
<text x="159.6" y="294.0" font-size="9px" text-anchor="middle" font-weight="normal" fill="#111827">Q-RT/S</text>
<rect x="197.6" y="109.3" width="32.6" height="168.7" fill="#16a34a"/>
<text x="213.9" y="105.3" font-size="10px" text-anchor="middle" font-weight="normal" fill="#111827">1</text>
<text x="213.9" y="294.0" font-size="9px" text-anchor="middle" font-weight="normal" fill="#111827">Q-Z/L</text>
<rect x="252.0" y="109.3" width="32.6" height="168.7" fill="#65a30d"/>
<text x="268.3" y="105.3" font-size="10px" text-anchor="middle" font-weight="normal" fill="#111827">1</text>
<text x="268.3" y="294.0" font-size="9px" text-anchor="middle" font-weight="normal" fill="#111827">Q-Z/S</text>
<rect x="306.4" y="109.3" width="32.6" height="168.7" fill="#ea580c"/>
<text x="322.7" y="105.3" font-size="10px" text-anchor="middle" font-weight="normal" fill="#111827">1</text>
<text x="322.7" y="294.0" font-size="9px" text-anchor="middle" font-weight="normal" fill="#111827">R-RT/L</text>
<rect x="360.8" y="109.3" width="32.6" height="168.7" fill="#c2410c"/>
<text x="377.1" y="105.3" font-size="10px" text-anchor="middle" font-weight="normal" fill="#111827">1</text>
<text x="377.1" y="294.0" font-size="9px" text-anchor="middle" font-weight="normal" fill="#111827">R-RT/S</text>
<rect x="415.1" y="109.3" width="32.6" height="168.7" fill="#9333ea"/>
<text x="431.4" y="105.3" font-size="10px" text-anchor="middle" font-weight="normal" fill="#111827">1</text>
<text x="431.4" y="294.0" font-size="9px" text-anchor="middle" font-weight="normal" fill="#111827">R-Z/L</text>
<rect x="469.5" y="109.3" width="32.6" height="168.7" fill="#db2777"/>
<text x="485.8" y="105.3" font-size="10px" text-anchor="middle" font-weight="normal" fill="#111827">1</text>
<text x="485.8" y="294.0" font-size="9px" text-anchor="middle" font-weight="normal" fill="#111827">R-Z/S</text>
<text x="36.0" y="183.5" font-size="10px" text-anchor="middle" font-weight="normal" fill="#111827">ratio</text>
<text x="553.0" y="75.0" font-size="14px" text-anchor="start" font-weight="bold" fill="#111827">Classification accuracy</text>
<rect class="frame" x="603.0" y="89.0" width="435.0" height="189.0"/>
<line class="grid" x1="603.0" y1="278.0" x2="1038.0" y2="278.0"/>
<text x="597.0" y="282.0" font-size="10px" text-anchor="end" font-weight="normal" fill="#111827">0</text>
<line class="grid" x1="603.0" y1="230.8" x2="1038.0" y2="230.8"/>
<text x="597.0" y="234.8" font-size="10px" text-anchor="end" font-weight="normal" fill="#111827">0.28</text>
<line class="grid" x1="603.0" y1="183.5" x2="1038.0" y2="183.5"/>
<text x="597.0" y="187.5" font-size="10px" text-anchor="end" font-weight="normal" fill="#111827">0.56</text>
<line class="grid" x1="603.0" y1="136.2" x2="1038.0" y2="136.2"/>
<text x="597.0" y="140.2" font-size="10px" text-anchor="end" font-weight="normal" fill="#111827">0.84</text>
<line class="grid" x1="603.0" y1="89.0" x2="1038.0" y2="89.0"/>
<text x="597.0" y="93.0" font-size="10px" text-anchor="end" font-weight="normal" fill="#111827">1.12</text>
<rect x="613.9" y="109.3" width="32.6" height="168.7" fill="#2563eb"/>
<text x="630.2" y="105.3" font-size="10px" text-anchor="middle" font-weight="normal" fill="#111827">1</text>
<text x="630.2" y="294.0" font-size="9px" text-anchor="middle" font-weight="normal" fill="#111827">Q-RT/L</text>
<rect x="668.2" y="109.3" width="32.6" height="168.7" fill="#0891b2"/>
<text x="684.6" y="105.3" font-size="10px" text-anchor="middle" font-weight="normal" fill="#111827">1</text>
<text x="684.6" y="294.0" font-size="9px" text-anchor="middle" font-weight="normal" fill="#111827">Q-RT/S</text>
<rect x="722.6" y="109.3" width="32.6" height="168.7" fill="#16a34a"/>
<text x="738.9" y="105.3" font-size="10px" text-anchor="middle" font-weight="normal" fill="#111827">1</text>
<text x="738.9" y="294.0" font-size="9px" text-anchor="middle" font-weight="normal" fill="#111827">Q-Z/L</text>
<rect x="777.0" y="109.3" width="32.6" height="168.7" fill="#65a30d"/>
<text x="793.3" y="105.3" font-size="10px" text-anchor="middle" font-weight="normal" fill="#111827">1</text>
<text x="793.3" y="294.0" font-size="9px" text-anchor="middle" font-weight="normal" fill="#111827">Q-Z/S</text>
<rect x="831.4" y="109.3" width="32.6" height="168.7" fill="#ea580c"/>
<text x="847.7" y="105.3" font-size="10px" text-anchor="middle" font-weight="normal" fill="#111827">1</text>
<text x="847.7" y="294.0" font-size="9px" text-anchor="middle" font-weight="normal" fill="#111827">R-RT/L</text>
<rect x="885.8" y="109.3" width="32.6" height="168.7" fill="#c2410c"/>
<text x="902.1" y="105.3" font-size="10px" text-anchor="middle" font-weight="normal" fill="#111827">1</text>
<text x="902.1" y="294.0" font-size="9px" text-anchor="middle" font-weight="normal" fill="#111827">R-RT/S</text>
<rect x="940.1" y="109.3" width="32.6" height="168.7" fill="#9333ea"/>
<text x="956.4" y="105.3" font-size="10px" text-anchor="middle" font-weight="normal" fill="#111827">1</text>
<text x="956.4" y="294.0" font-size="9px" text-anchor="middle" font-weight="normal" fill="#111827">R-Z/L</text>
<rect x="994.5" y="109.3" width="32.6" height="168.7" fill="#db2777"/>
<text x="1010.8" y="105.3" font-size="10px" text-anchor="middle" font-weight="normal" fill="#111827">1</text>
<text x="1010.8" y="294.0" font-size="9px" text-anchor="middle" font-weight="normal" fill="#111827">R-Z/S</text>
<text x="561.0" y="183.5" font-size="10px" text-anchor="middle" font-weight="normal" fill="#111827">ratio</text>
<text x="1078.0" y="75.0" font-size="14px" text-anchor="start" font-weight="bold" fill="#111827">Effective payload</text>
<rect class="frame" x="1128.0" y="89.0" width="435.0" height="189.0"/>
<line class="grid" x1="1128.0" y1="278.0" x2="1563.0" y2="278.0"/>
<text x="1122.0" y="282.0" font-size="10px" text-anchor="end" font-weight="normal" fill="#111827">0</text>
<line class="grid" x1="1128.0" y1="230.8" x2="1563.0" y2="230.8"/>
<text x="1122.0" y="234.8" font-size="10px" text-anchor="end" font-weight="normal" fill="#111827">91.8</text>
<line class="grid" x1="1128.0" y1="183.5" x2="1563.0" y2="183.5"/>
<text x="1122.0" y="187.5" font-size="10px" text-anchor="end" font-weight="normal" fill="#111827">184</text>
<line class="grid" x1="1128.0" y1="136.2" x2="1563.0" y2="136.2"/>
<text x="1122.0" y="140.2" font-size="10px" text-anchor="end" font-weight="normal" fill="#111827">276</text>
<line class="grid" x1="1128.0" y1="89.0" x2="1563.0" y2="89.0"/>
<text x="1122.0" y="93.0" font-size="10px" text-anchor="end" font-weight="normal" fill="#111827">367</text>
<rect x="1138.9" y="163.3" width="32.6" height="114.7" fill="#2563eb"/>
<text x="1155.2" y="159.3" font-size="10px" text-anchor="middle" font-weight="normal" fill="#111827">223</text>
<text x="1155.2" y="294.0" font-size="9px" text-anchor="middle" font-weight="normal" fill="#111827">Q-RT/L</text>
<rect x="1193.2" y="122.1" width="32.6" height="155.9" fill="#0891b2"/>
<text x="1209.6" y="118.1" font-size="10px" text-anchor="middle" font-weight="normal" fill="#111827">303</text>
<text x="1209.6" y="294.0" font-size="9px" text-anchor="middle" font-weight="normal" fill="#111827">Q-RT/S</text>
<rect x="1247.6" y="150.9" width="32.6" height="127.1" fill="#16a34a"/>
<text x="1263.9" y="146.9" font-size="10px" text-anchor="middle" font-weight="normal" fill="#111827">247</text>
<text x="1263.9" y="294.0" font-size="9px" text-anchor="middle" font-weight="normal" fill="#111827">Q-Z/L</text>
<rect x="1302.0" y="109.2" width="32.6" height="168.8" fill="#65a30d"/>
<text x="1318.3" y="105.2" font-size="10px" text-anchor="middle" font-weight="normal" fill="#111827">328</text>
<text x="1318.3" y="294.0" font-size="9px" text-anchor="middle" font-weight="normal" fill="#111827">Q-Z/S</text>
<rect x="1356.4" y="109.2" width="32.6" height="168.8" fill="#ea580c"/>
<text x="1372.7" y="105.2" font-size="10px" text-anchor="middle" font-weight="normal" fill="#111827">328</text>
<text x="1372.7" y="294.0" font-size="9px" text-anchor="middle" font-weight="normal" fill="#111827">R-RT/L</text>
<rect x="1410.8" y="114.9" width="32.6" height="163.1" fill="#c2410c"/>
<text x="1427.1" y="110.9" font-size="10px" text-anchor="middle" font-weight="normal" fill="#111827">317</text>
<text x="1427.1" y="294.0" font-size="9px" text-anchor="middle" font-weight="normal" fill="#111827">R-RT/S</text>
<rect x="1465.1" y="115.4" width="32.6" height="162.6" fill="#9333ea"/>
<text x="1481.4" y="111.4" font-size="10px" text-anchor="middle" font-weight="normal" fill="#111827">316</text>
<text x="1481.4" y="294.0" font-size="9px" text-anchor="middle" font-weight="normal" fill="#111827">R-Z/L</text>
<rect x="1519.5" y="117.0" width="32.6" height="161.0" fill="#db2777"/>
<text x="1535.8" y="113.0" font-size="10px" text-anchor="middle" font-weight="normal" fill="#111827">313</text>
<text x="1535.8" y="294.0" font-size="9px" text-anchor="middle" font-weight="normal" fill="#111827">R-Z/S</text>
<text x="1086.0" y="183.5" font-size="10px" text-anchor="middle" font-weight="normal" fill="#111827">bytes/s</text>
<text x="28.0" y="375.0" font-size="14px" text-anchor="start" font-weight="bold" fill="#111827">Requests</text>
<rect class="frame" x="78.0" y="389.0" width="435.0" height="189.0"/>
<line class="grid" x1="78.0" y1="578.0" x2="513.0" y2="578.0"/>
<text x="72.0" y="582.0" font-size="10px" text-anchor="end" font-weight="normal" fill="#111827">0</text>
<line class="grid" x1="78.0" y1="530.8" x2="513.0" y2="530.8"/>
<text x="72.0" y="534.8" font-size="10px" text-anchor="end" font-weight="normal" fill="#111827">1.68</text>
<line class="grid" x1="78.0" y1="483.5" x2="513.0" y2="483.5"/>
<text x="72.0" y="487.5" font-size="10px" text-anchor="end" font-weight="normal" fill="#111827">3.36</text>
<line class="grid" x1="78.0" y1="436.2" x2="513.0" y2="436.2"/>
<text x="72.0" y="440.2" font-size="10px" text-anchor="end" font-weight="normal" fill="#111827">5.04</text>
<line class="grid" x1="78.0" y1="389.0" x2="513.0" y2="389.0"/>
<text x="72.0" y="393.0" font-size="10px" text-anchor="end" font-weight="normal" fill="#111827">6.72</text>
<rect x="88.9" y="409.2" width="32.6" height="168.7" fill="#2563eb"/>
<text x="105.2" y="405.2" font-size="10px" text-anchor="middle" font-weight="normal" fill="#111827">6</text>
<text x="105.2" y="594.0" font-size="9px" text-anchor="middle" font-weight="normal" fill="#111827">Q-RT/L</text>
<rect x="143.2" y="409.2" width="32.6" height="168.7" fill="#0891b2"/>
<text x="159.6" y="405.2" font-size="10px" text-anchor="middle" font-weight="normal" fill="#111827">6</text>
<text x="159.6" y="594.0" font-size="9px" text-anchor="middle" font-weight="normal" fill="#111827">Q-RT/S</text>
<rect x="197.6" y="409.2" width="32.6" height="168.7" fill="#16a34a"/>
<text x="213.9" y="405.2" font-size="10px" text-anchor="middle" font-weight="normal" fill="#111827">6</text>
<text x="213.9" y="594.0" font-size="9px" text-anchor="middle" font-weight="normal" fill="#111827">Q-Z/L</text>
<rect x="252.0" y="409.2" width="32.6" height="168.7" fill="#65a30d"/>
<text x="268.3" y="405.2" font-size="10px" text-anchor="middle" font-weight="normal" fill="#111827">6</text>
<text x="268.3" y="594.0" font-size="9px" text-anchor="middle" font-weight="normal" fill="#111827">Q-Z/S</text>
<rect x="306.4" y="409.2" width="32.6" height="168.7" fill="#ea580c"/>
<text x="322.7" y="405.2" font-size="10px" text-anchor="middle" font-weight="normal" fill="#111827">6</text>
<text x="322.7" y="594.0" font-size="9px" text-anchor="middle" font-weight="normal" fill="#111827">R-RT/L</text>
<rect x="360.8" y="409.2" width="32.6" height="168.7" fill="#c2410c"/>
<text x="377.1" y="405.2" font-size="10px" text-anchor="middle" font-weight="normal" fill="#111827">6</text>
<text x="377.1" y="594.0" font-size="9px" text-anchor="middle" font-weight="normal" fill="#111827">R-RT/S</text>
<rect x="415.1" y="409.2" width="32.6" height="168.7" fill="#9333ea"/>
<text x="431.4" y="405.2" font-size="10px" text-anchor="middle" font-weight="normal" fill="#111827">6</text>
<text x="431.4" y="594.0" font-size="9px" text-anchor="middle" font-weight="normal" fill="#111827">R-Z/L</text>
<rect x="469.5" y="409.2" width="32.6" height="168.7" fill="#db2777"/>
<text x="485.8" y="405.2" font-size="10px" text-anchor="middle" font-weight="normal" fill="#111827">6</text>
<text x="485.8" y="594.0" font-size="9px" text-anchor="middle" font-weight="normal" fill="#111827">R-Z/S</text>
<text x="36.0" y="483.5" font-size="10px" text-anchor="middle" font-weight="normal" fill="#111827">count</text>
<text x="553.0" y="375.0" font-size="14px" text-anchor="start" font-weight="bold" fill="#111827">Successes</text>
<rect class="frame" x="603.0" y="389.0" width="435.0" height="189.0"/>
<line class="grid" x1="603.0" y1="578.0" x2="1038.0" y2="578.0"/>
<text x="597.0" y="582.0" font-size="10px" text-anchor="end" font-weight="normal" fill="#111827">0</text>
<line class="grid" x1="603.0" y1="530.8" x2="1038.0" y2="530.8"/>
<text x="597.0" y="534.8" font-size="10px" text-anchor="end" font-weight="normal" fill="#111827">1.68</text>
<line class="grid" x1="603.0" y1="483.5" x2="1038.0" y2="483.5"/>
<text x="597.0" y="487.5" font-size="10px" text-anchor="end" font-weight="normal" fill="#111827">3.36</text>
<line class="grid" x1="603.0" y1="436.2" x2="1038.0" y2="436.2"/>
<text x="597.0" y="440.2" font-size="10px" text-anchor="end" font-weight="normal" fill="#111827">5.04</text>
<line class="grid" x1="603.0" y1="389.0" x2="1038.0" y2="389.0"/>
<text x="597.0" y="393.0" font-size="10px" text-anchor="end" font-weight="normal" fill="#111827">6.72</text>
<rect x="613.9" y="409.2" width="32.6" height="168.7" fill="#2563eb"/>
<text x="630.2" y="405.2" font-size="10px" text-anchor="middle" font-weight="normal" fill="#111827">6</text>
<text x="630.2" y="594.0" font-size="9px" text-anchor="middle" font-weight="normal" fill="#111827">Q-RT/L</text>
<rect x="668.2" y="409.2" width="32.6" height="168.7" fill="#0891b2"/>
<text x="684.6" y="405.2" font-size="10px" text-anchor="middle" font-weight="normal" fill="#111827">6</text>
<text x="684.6" y="594.0" font-size="9px" text-anchor="middle" font-weight="normal" fill="#111827">Q-RT/S</text>
<rect x="722.6" y="409.2" width="32.6" height="168.7" fill="#16a34a"/>
<text x="738.9" y="405.2" font-size="10px" text-anchor="middle" font-weight="normal" fill="#111827">6</text>
<text x="738.9" y="594.0" font-size="9px" text-anchor="middle" font-weight="normal" fill="#111827">Q-Z/L</text>
<rect x="777.0" y="409.2" width="32.6" height="168.7" fill="#65a30d"/>
<text x="793.3" y="405.2" font-size="10px" text-anchor="middle" font-weight="normal" fill="#111827">6</text>
<text x="793.3" y="594.0" font-size="9px" text-anchor="middle" font-weight="normal" fill="#111827">Q-Z/S</text>
<rect x="831.4" y="409.2" width="32.6" height="168.7" fill="#ea580c"/>
<text x="847.7" y="405.2" font-size="10px" text-anchor="middle" font-weight="normal" fill="#111827">6</text>
<text x="847.7" y="594.0" font-size="9px" text-anchor="middle" font-weight="normal" fill="#111827">R-RT/L</text>
<rect x="885.8" y="409.2" width="32.6" height="168.7" fill="#c2410c"/>
<text x="902.1" y="405.2" font-size="10px" text-anchor="middle" font-weight="normal" fill="#111827">6</text>
<text x="902.1" y="594.0" font-size="9px" text-anchor="middle" font-weight="normal" fill="#111827">R-RT/S</text>
<rect x="940.1" y="409.2" width="32.6" height="168.7" fill="#9333ea"/>
<text x="956.4" y="405.2" font-size="10px" text-anchor="middle" font-weight="normal" fill="#111827">6</text>
<text x="956.4" y="594.0" font-size="9px" text-anchor="middle" font-weight="normal" fill="#111827">R-Z/L</text>
<rect x="994.5" y="409.2" width="32.6" height="168.7" fill="#db2777"/>
<text x="1010.8" y="405.2" font-size="10px" text-anchor="middle" font-weight="normal" fill="#111827">6</text>
<text x="1010.8" y="594.0" font-size="9px" text-anchor="middle" font-weight="normal" fill="#111827">R-Z/S</text>
<text x="561.0" y="483.5" font-size="10px" text-anchor="middle" font-weight="normal" fill="#111827">count</text>
<text x="1078.0" y="375.0" font-size="14px" text-anchor="start" font-weight="bold" fill="#111827">Application errors</text>
<rect class="frame" x="1128.0" y="389.0" width="435.0" height="189.0"/>
<line class="grid" x1="1128.0" y1="578.0" x2="1563.0" y2="578.0"/>
<text x="1122.0" y="582.0" font-size="10px" text-anchor="end" font-weight="normal" fill="#111827">0</text>
<line class="grid" x1="1128.0" y1="530.8" x2="1563.0" y2="530.8"/>
<text x="1122.0" y="534.8" font-size="10px" text-anchor="end" font-weight="normal" fill="#111827">0.25</text>
<line class="grid" x1="1128.0" y1="483.5" x2="1563.0" y2="483.5"/>
<text x="1122.0" y="487.5" font-size="10px" text-anchor="end" font-weight="normal" fill="#111827">0.5</text>
<line class="grid" x1="1128.0" y1="436.2" x2="1563.0" y2="436.2"/>
<text x="1122.0" y="440.2" font-size="10px" text-anchor="end" font-weight="normal" fill="#111827">0.75</text>
<line class="grid" x1="1128.0" y1="389.0" x2="1563.0" y2="389.0"/>
<text x="1122.0" y="393.0" font-size="10px" text-anchor="end" font-weight="normal" fill="#111827">1</text>
<rect x="1138.9" y="578.0" width="32.6" height="0.0" fill="#2563eb"/>
<text x="1155.2" y="574.0" font-size="10px" text-anchor="middle" font-weight="normal" fill="#111827">0</text>
<text x="1155.2" y="594.0" font-size="9px" text-anchor="middle" font-weight="normal" fill="#111827">Q-RT/L</text>
<rect x="1193.2" y="578.0" width="32.6" height="0.0" fill="#0891b2"/>
<text x="1209.6" y="574.0" font-size="10px" text-anchor="middle" font-weight="normal" fill="#111827">0</text>
<text x="1209.6" y="594.0" font-size="9px" text-anchor="middle" font-weight="normal" fill="#111827">Q-RT/S</text>
<rect x="1247.6" y="578.0" width="32.6" height="0.0" fill="#16a34a"/>
<text x="1263.9" y="574.0" font-size="10px" text-anchor="middle" font-weight="normal" fill="#111827">0</text>
<text x="1263.9" y="594.0" font-size="9px" text-anchor="middle" font-weight="normal" fill="#111827">Q-Z/L</text>
<rect x="1302.0" y="578.0" width="32.6" height="0.0" fill="#65a30d"/>
<text x="1318.3" y="574.0" font-size="10px" text-anchor="middle" font-weight="normal" fill="#111827">0</text>
<text x="1318.3" y="594.0" font-size="9px" text-anchor="middle" font-weight="normal" fill="#111827">Q-Z/S</text>
<rect x="1356.4" y="578.0" width="32.6" height="0.0" fill="#ea580c"/>
<text x="1372.7" y="574.0" font-size="10px" text-anchor="middle" font-weight="normal" fill="#111827">0</text>
<text x="1372.7" y="594.0" font-size="9px" text-anchor="middle" font-weight="normal" fill="#111827">R-RT/L</text>
<rect x="1410.8" y="578.0" width="32.6" height="0.0" fill="#c2410c"/>
<text x="1427.1" y="574.0" font-size="10px" text-anchor="middle" font-weight="normal" fill="#111827">0</text>
<text x="1427.1" y="594.0" font-size="9px" text-anchor="middle" font-weight="normal" fill="#111827">R-RT/S</text>
<rect x="1465.1" y="578.0" width="32.6" height="0.0" fill="#9333ea"/>
<text x="1481.4" y="574.0" font-size="10px" text-anchor="middle" font-weight="normal" fill="#111827">0</text>
<text x="1481.4" y="594.0" font-size="9px" text-anchor="middle" font-weight="normal" fill="#111827">R-Z/L</text>
<rect x="1519.5" y="578.0" width="32.6" height="0.0" fill="#db2777"/>
<text x="1535.8" y="574.0" font-size="10px" text-anchor="middle" font-weight="normal" fill="#111827">0</text>
<text x="1535.8" y="594.0" font-size="9px" text-anchor="middle" font-weight="normal" fill="#111827">R-Z/S</text>
<text x="1086.0" y="483.5" font-size="10px" text-anchor="middle" font-weight="normal" fill="#111827">count</text>
<text x="28.0" y="675.0" font-size="14px" text-anchor="start" font-weight="bold" fill="#111827">Application timeouts</text>
<rect class="frame" x="78.0" y="689.0" width="435.0" height="189.0"/>
<line class="grid" x1="78.0" y1="878.0" x2="513.0" y2="878.0"/>
<text x="72.0" y="882.0" font-size="10px" text-anchor="end" font-weight="normal" fill="#111827">0</text>
<line class="grid" x1="78.0" y1="830.8" x2="513.0" y2="830.8"/>
<text x="72.0" y="834.8" font-size="10px" text-anchor="end" font-weight="normal" fill="#111827">0.25</text>
<line class="grid" x1="78.0" y1="783.5" x2="513.0" y2="783.5"/>
<text x="72.0" y="787.5" font-size="10px" text-anchor="end" font-weight="normal" fill="#111827">0.5</text>
<line class="grid" x1="78.0" y1="736.2" x2="513.0" y2="736.2"/>
<text x="72.0" y="740.2" font-size="10px" text-anchor="end" font-weight="normal" fill="#111827">0.75</text>
<line class="grid" x1="78.0" y1="689.0" x2="513.0" y2="689.0"/>
<text x="72.0" y="693.0" font-size="10px" text-anchor="end" font-weight="normal" fill="#111827">1</text>
<rect x="88.9" y="878.0" width="32.6" height="0.0" fill="#2563eb"/>
<text x="105.2" y="874.0" font-size="10px" text-anchor="middle" font-weight="normal" fill="#111827">0</text>
<text x="105.2" y="894.0" font-size="9px" text-anchor="middle" font-weight="normal" fill="#111827">Q-RT/L</text>
<rect x="143.2" y="878.0" width="32.6" height="0.0" fill="#0891b2"/>
<text x="159.6" y="874.0" font-size="10px" text-anchor="middle" font-weight="normal" fill="#111827">0</text>
<text x="159.6" y="894.0" font-size="9px" text-anchor="middle" font-weight="normal" fill="#111827">Q-RT/S</text>
<rect x="197.6" y="878.0" width="32.6" height="0.0" fill="#16a34a"/>
<text x="213.9" y="874.0" font-size="10px" text-anchor="middle" font-weight="normal" fill="#111827">0</text>
<text x="213.9" y="894.0" font-size="9px" text-anchor="middle" font-weight="normal" fill="#111827">Q-Z/L</text>
<rect x="252.0" y="878.0" width="32.6" height="0.0" fill="#65a30d"/>
<text x="268.3" y="874.0" font-size="10px" text-anchor="middle" font-weight="normal" fill="#111827">0</text>
<text x="268.3" y="894.0" font-size="9px" text-anchor="middle" font-weight="normal" fill="#111827">Q-Z/S</text>
<rect x="306.4" y="878.0" width="32.6" height="0.0" fill="#ea580c"/>
<text x="322.7" y="874.0" font-size="10px" text-anchor="middle" font-weight="normal" fill="#111827">0</text>
<text x="322.7" y="894.0" font-size="9px" text-anchor="middle" font-weight="normal" fill="#111827">R-RT/L</text>
<rect x="360.8" y="878.0" width="32.6" height="0.0" fill="#c2410c"/>
<text x="377.1" y="874.0" font-size="10px" text-anchor="middle" font-weight="normal" fill="#111827">0</text>
<text x="377.1" y="894.0" font-size="9px" text-anchor="middle" font-weight="normal" fill="#111827">R-RT/S</text>
<rect x="415.1" y="878.0" width="32.6" height="0.0" fill="#9333ea"/>
<text x="431.4" y="874.0" font-size="10px" text-anchor="middle" font-weight="normal" fill="#111827">0</text>
<text x="431.4" y="894.0" font-size="9px" text-anchor="middle" font-weight="normal" fill="#111827">R-Z/L</text>
<rect x="469.5" y="878.0" width="32.6" height="0.0" fill="#db2777"/>
<text x="485.8" y="874.0" font-size="10px" text-anchor="middle" font-weight="normal" fill="#111827">0</text>
<text x="485.8" y="894.0" font-size="9px" text-anchor="middle" font-weight="normal" fill="#111827">R-Z/S</text>
<text x="36.0" y="783.5" font-size="10px" text-anchor="middle" font-weight="normal" fill="#111827">count</text>
<text x="553.0" y="675.0" font-size="14px" text-anchor="start" font-weight="bold" fill="#111827">Transport retries</text>
<rect class="frame" x="603.0" y="689.0" width="435.0" height="189.0"/>
<line class="grid" x1="603.0" y1="878.0" x2="1038.0" y2="878.0"/>
<text x="597.0" y="882.0" font-size="10px" text-anchor="end" font-weight="normal" fill="#111827">0</text>
<line class="grid" x1="603.0" y1="830.8" x2="1038.0" y2="830.8"/>
<text x="597.0" y="834.8" font-size="10px" text-anchor="end" font-weight="normal" fill="#111827">0.25</text>
<line class="grid" x1="603.0" y1="783.5" x2="1038.0" y2="783.5"/>
<text x="597.0" y="787.5" font-size="10px" text-anchor="end" font-weight="normal" fill="#111827">0.5</text>
<line class="grid" x1="603.0" y1="736.2" x2="1038.0" y2="736.2"/>
<text x="597.0" y="740.2" font-size="10px" text-anchor="end" font-weight="normal" fill="#111827">0.75</text>
<line class="grid" x1="603.0" y1="689.0" x2="1038.0" y2="689.0"/>
<text x="597.0" y="693.0" font-size="10px" text-anchor="end" font-weight="normal" fill="#111827">1</text>
<rect x="613.9" y="878.0" width="32.6" height="0.0" fill="#2563eb"/>
<text x="630.2" y="874.0" font-size="10px" text-anchor="middle" font-weight="normal" fill="#111827">0</text>
<text x="630.2" y="894.0" font-size="9px" text-anchor="middle" font-weight="normal" fill="#111827">Q-RT/L</text>
<rect x="668.2" y="878.0" width="32.6" height="0.0" fill="#0891b2"/>
<text x="684.6" y="874.0" font-size="10px" text-anchor="middle" font-weight="normal" fill="#111827">0</text>
<text x="684.6" y="894.0" font-size="9px" text-anchor="middle" font-weight="normal" fill="#111827">Q-RT/S</text>
<rect x="722.6" y="878.0" width="32.6" height="0.0" fill="#16a34a"/>
<text x="738.9" y="874.0" font-size="10px" text-anchor="middle" font-weight="normal" fill="#111827">0</text>
<text x="738.9" y="894.0" font-size="9px" text-anchor="middle" font-weight="normal" fill="#111827">Q-Z/L</text>
<rect x="777.0" y="878.0" width="32.6" height="0.0" fill="#65a30d"/>
<text x="793.3" y="874.0" font-size="10px" text-anchor="middle" font-weight="normal" fill="#111827">0</text>
<text x="793.3" y="894.0" font-size="9px" text-anchor="middle" font-weight="normal" fill="#111827">Q-Z/S</text>
<rect x="831.4" y="878.0" width="32.6" height="0.0" fill="#ea580c"/>
<text x="847.7" y="874.0" font-size="10px" text-anchor="middle" font-weight="normal" fill="#111827">0</text>
<text x="847.7" y="894.0" font-size="9px" text-anchor="middle" font-weight="normal" fill="#111827">R-RT/L</text>
<rect x="885.8" y="878.0" width="32.6" height="0.0" fill="#c2410c"/>
<text x="902.1" y="874.0" font-size="10px" text-anchor="middle" font-weight="normal" fill="#111827">0</text>
<text x="902.1" y="894.0" font-size="9px" text-anchor="middle" font-weight="normal" fill="#111827">R-RT/S</text>
<rect x="940.1" y="878.0" width="32.6" height="0.0" fill="#9333ea"/>
<text x="956.4" y="874.0" font-size="10px" text-anchor="middle" font-weight="normal" fill="#111827">0</text>
<text x="956.4" y="894.0" font-size="9px" text-anchor="middle" font-weight="normal" fill="#111827">R-Z/L</text>
<rect x="994.5" y="878.0" width="32.6" height="0.0" fill="#db2777"/>
<text x="1010.8" y="874.0" font-size="10px" text-anchor="middle" font-weight="normal" fill="#111827">0</text>
<text x="1010.8" y="894.0" font-size="9px" text-anchor="middle" font-weight="normal" fill="#111827">R-Z/S</text>
<text x="561.0" y="783.5" font-size="10px" text-anchor="middle" font-weight="normal" fill="#111827">count</text>
<text x="1078.0" y="675.0" font-size="14px" text-anchor="start" font-weight="bold" fill="#111827">Reconnects</text>
<rect class="frame" x="1128.0" y="689.0" width="435.0" height="189.0"/>
<line class="grid" x1="1128.0" y1="878.0" x2="1563.0" y2="878.0"/>
<text x="1122.0" y="882.0" font-size="10px" text-anchor="end" font-weight="normal" fill="#111827">0</text>
<line class="grid" x1="1128.0" y1="830.8" x2="1563.0" y2="830.8"/>
<text x="1122.0" y="834.8" font-size="10px" text-anchor="end" font-weight="normal" fill="#111827">0.25</text>
<line class="grid" x1="1128.0" y1="783.5" x2="1563.0" y2="783.5"/>
<text x="1122.0" y="787.5" font-size="10px" text-anchor="end" font-weight="normal" fill="#111827">0.5</text>
<line class="grid" x1="1128.0" y1="736.2" x2="1563.0" y2="736.2"/>
<text x="1122.0" y="740.2" font-size="10px" text-anchor="end" font-weight="normal" fill="#111827">0.75</text>
<line class="grid" x1="1128.0" y1="689.0" x2="1563.0" y2="689.0"/>
<text x="1122.0" y="693.0" font-size="10px" text-anchor="end" font-weight="normal" fill="#111827">1</text>
<rect x="1138.9" y="878.0" width="32.6" height="0.0" fill="#2563eb"/>
<text x="1155.2" y="874.0" font-size="10px" text-anchor="middle" font-weight="normal" fill="#111827">0</text>
<text x="1155.2" y="894.0" font-size="9px" text-anchor="middle" font-weight="normal" fill="#111827">Q-RT/L</text>
<rect x="1193.2" y="878.0" width="32.6" height="0.0" fill="#0891b2"/>
<text x="1209.6" y="874.0" font-size="10px" text-anchor="middle" font-weight="normal" fill="#111827">0</text>
<text x="1209.6" y="894.0" font-size="9px" text-anchor="middle" font-weight="normal" fill="#111827">Q-RT/S</text>
<rect x="1247.6" y="878.0" width="32.6" height="0.0" fill="#16a34a"/>
<text x="1263.9" y="874.0" font-size="10px" text-anchor="middle" font-weight="normal" fill="#111827">0</text>
<text x="1263.9" y="894.0" font-size="9px" text-anchor="middle" font-weight="normal" fill="#111827">Q-Z/L</text>
<rect x="1302.0" y="878.0" width="32.6" height="0.0" fill="#65a30d"/>
<text x="1318.3" y="874.0" font-size="10px" text-anchor="middle" font-weight="normal" fill="#111827">0</text>
<text x="1318.3" y="894.0" font-size="9px" text-anchor="middle" font-weight="normal" fill="#111827">Q-Z/S</text>
<rect x="1356.4" y="878.0" width="32.6" height="0.0" fill="#ea580c"/>
<text x="1372.7" y="874.0" font-size="10px" text-anchor="middle" font-weight="normal" fill="#111827">0</text>
<text x="1372.7" y="894.0" font-size="9px" text-anchor="middle" font-weight="normal" fill="#111827">R-RT/L</text>
<rect x="1410.8" y="878.0" width="32.6" height="0.0" fill="#c2410c"/>
<text x="1427.1" y="874.0" font-size="10px" text-anchor="middle" font-weight="normal" fill="#111827">0</text>
<text x="1427.1" y="894.0" font-size="9px" text-anchor="middle" font-weight="normal" fill="#111827">R-RT/S</text>
<rect x="1465.1" y="878.0" width="32.6" height="0.0" fill="#9333ea"/>
<text x="1481.4" y="874.0" font-size="10px" text-anchor="middle" font-weight="normal" fill="#111827">0</text>
<text x="1481.4" y="894.0" font-size="9px" text-anchor="middle" font-weight="normal" fill="#111827">R-Z/L</text>
<rect x="1519.5" y="878.0" width="32.6" height="0.0" fill="#db2777"/>
<text x="1535.8" y="874.0" font-size="10px" text-anchor="middle" font-weight="normal" fill="#111827">0</text>
<text x="1535.8" y="894.0" font-size="9px" text-anchor="middle" font-weight="normal" fill="#111827">R-Z/S</text>
<text x="1086.0" y="783.5" font-size="10px" text-anchor="middle" font-weight="normal" fill="#111827">count</text>
<rect x="1080.0" y="920.0" width="12" height="12" fill="#2563eb"/>
<text x="1097.0" y="930.0" font-size="11px" text-anchor="start" font-weight="normal" fill="#111827">Q-RT/L</text>
<rect x="1230.0" y="920.0" width="12" height="12" fill="#0891b2"/>
<text x="1247.0" y="930.0" font-size="11px" text-anchor="start" font-weight="normal" fill="#111827">Q-RT/S</text>
<rect x="1380.0" y="920.0" width="12" height="12" fill="#16a34a"/>
<text x="1397.0" y="930.0" font-size="11px" text-anchor="start" font-weight="normal" fill="#111827">Q-Z/L</text>
<rect x="1530.0" y="920.0" width="12" height="12" fill="#65a30d"/>
<text x="1547.0" y="930.0" font-size="11px" text-anchor="start" font-weight="normal" fill="#111827">Q-Z/S</text>
<rect x="1080.0" y="940.0" width="12" height="12" fill="#ea580c"/>
<text x="1097.0" y="950.0" font-size="11px" text-anchor="start" font-weight="normal" fill="#111827">R-RT/L</text>
<rect x="1230.0" y="940.0" width="12" height="12" fill="#c2410c"/>
<text x="1247.0" y="950.0" font-size="11px" text-anchor="start" font-weight="normal" fill="#111827">R-RT/S</text>
<rect x="1380.0" y="940.0" width="12" height="12" fill="#9333ea"/>
<text x="1397.0" y="950.0" font-size="11px" text-anchor="start" font-weight="normal" fill="#111827">R-Z/L</text>
<rect x="1530.0" y="940.0" width="12" height="12" fill="#db2777"/>
<text x="1547.0" y="950.0" font-size="11px" text-anchor="start" font-weight="normal" fill="#111827">R-Z/S</text>
</svg>
